<mxfile host="app.diagrams.net" modified="2023-12-26T20:15:52.380Z" agent="Mozilla/5.0 (Windows NT 10.0; Win64; x64) AppleWebKit/537.36 (KHTML, like Gecko) Chrome/120.0.0.0 Safari/537.36 Edg/120.0.0.0" etag="kA8FRQmmNsGlgayrGoBa" version="22.1.11" type="github">
  <diagram id="C5RBs43oDa-KdzZeNtuy" name="Page-1">
    <mxGraphModel dx="1386" dy="867" grid="1" gridSize="10" guides="1" tooltips="1" connect="1" arrows="1" fold="1" page="1" pageScale="1" pageWidth="827" pageHeight="1169" math="0" shadow="0">
      <root>
        <mxCell id="WIyWlLk6GJQsqaUBKTNV-0" />
        <mxCell id="WIyWlLk6GJQsqaUBKTNV-1" parent="WIyWlLk6GJQsqaUBKTNV-0" />
        <mxCell id="Gi9BTqW4Cwu94ndGXkiz-0" value="ADAPTAÇÃO DA BOBINA PARA INSTAÇÃO DO ESCARGOT" style="swimlane;childLayout=stackLayout;resizeParent=1;resizeParentMax=0;horizontal=0;startSize=20;horizontalStack=0;html=1;" vertex="1" parent="WIyWlLk6GJQsqaUBKTNV-1">
          <mxGeometry x="36" y="30" width="760" height="680" as="geometry" />
        </mxCell>
        <mxCell id="Gi9BTqW4Cwu94ndGXkiz-1" value="PMB" style="swimlane;startSize=20;horizontal=0;html=1;" vertex="1" parent="Gi9BTqW4Cwu94ndGXkiz-0">
          <mxGeometry x="20" width="740" height="150" as="geometry" />
        </mxCell>
        <mxCell id="WIyWlLk6GJQsqaUBKTNV-3" value="Informações da bobina necessária" style="rounded=1;whiteSpace=wrap;html=1;fontSize=12;glass=0;strokeWidth=1;shadow=0;" parent="Gi9BTqW4Cwu94ndGXkiz-1" vertex="1">
          <mxGeometry x="155" y="50" width="120" height="50" as="geometry" />
        </mxCell>
        <mxCell id="Gi9BTqW4Cwu94ndGXkiz-18" value="" style="edgeStyle=orthogonalEdgeStyle;rounded=0;orthogonalLoop=1;jettySize=auto;html=1;" edge="1" parent="Gi9BTqW4Cwu94ndGXkiz-1" source="Gi9BTqW4Cwu94ndGXkiz-14" target="Gi9BTqW4Cwu94ndGXkiz-17">
          <mxGeometry relative="1" as="geometry" />
        </mxCell>
        <mxCell id="Gi9BTqW4Cwu94ndGXkiz-14" value="Avaliação e aprovação" style="rounded=1;whiteSpace=wrap;html=1;fontSize=12;glass=0;strokeWidth=1;shadow=0;" vertex="1" parent="Gi9BTqW4Cwu94ndGXkiz-1">
          <mxGeometry x="475" y="50" width="120" height="50" as="geometry" />
        </mxCell>
        <mxCell id="Gi9BTqW4Cwu94ndGXkiz-17" value="END" style="ellipse;whiteSpace=wrap;html=1;rounded=1;glass=0;strokeWidth=1;shadow=0;" vertex="1" parent="Gi9BTqW4Cwu94ndGXkiz-1">
          <mxGeometry x="659" y="55" width="40" height="40" as="geometry" />
        </mxCell>
        <mxCell id="Gi9BTqW4Cwu94ndGXkiz-20" value="" style="edgeStyle=orthogonalEdgeStyle;rounded=0;orthogonalLoop=1;jettySize=auto;html=1;" edge="1" parent="Gi9BTqW4Cwu94ndGXkiz-1" source="Gi9BTqW4Cwu94ndGXkiz-19" target="WIyWlLk6GJQsqaUBKTNV-3">
          <mxGeometry relative="1" as="geometry" />
        </mxCell>
        <mxCell id="Gi9BTqW4Cwu94ndGXkiz-19" value="START" style="ellipse;whiteSpace=wrap;html=1;rounded=1;glass=0;strokeWidth=1;shadow=0;" vertex="1" parent="Gi9BTqW4Cwu94ndGXkiz-1">
          <mxGeometry x="50" y="55" width="40" height="40" as="geometry" />
        </mxCell>
        <mxCell id="Gi9BTqW4Cwu94ndGXkiz-21" value="Com base no estudo de bobinas / PLAC" style="text;html=1;strokeColor=none;fillColor=none;align=center;verticalAlign=middle;whiteSpace=wrap;rounded=0;fontSize=10;" vertex="1" parent="Gi9BTqW4Cwu94ndGXkiz-1">
          <mxGeometry x="151.25" y="20" width="127.5" height="30" as="geometry" />
        </mxCell>
        <mxCell id="Gi9BTqW4Cwu94ndGXkiz-22" value="Comparar a furação da bobina com a furação do escargot" style="text;html=1;strokeColor=none;fillColor=none;align=center;verticalAlign=middle;whiteSpace=wrap;rounded=0;fontSize=10;" vertex="1" parent="Gi9BTqW4Cwu94ndGXkiz-1">
          <mxGeometry x="459.38" y="20" width="151.25" height="30" as="geometry" />
        </mxCell>
        <mxCell id="Gi9BTqW4Cwu94ndGXkiz-2" value="PLM" style="swimlane;startSize=20;horizontal=0;html=1;" vertex="1" parent="Gi9BTqW4Cwu94ndGXkiz-0">
          <mxGeometry x="20" y="150" width="740" height="230" as="geometry" />
        </mxCell>
        <mxCell id="WIyWlLk6GJQsqaUBKTNV-6" value="&lt;font style=&quot;font-size: 12px;&quot;&gt;Bobina já adaptada?&lt;/font&gt;" style="rhombus;whiteSpace=wrap;html=1;shadow=0;fontFamily=Helvetica;fontSize=12;align=center;strokeWidth=1;spacing=6;spacingTop=-4;" parent="Gi9BTqW4Cwu94ndGXkiz-2" vertex="1">
          <mxGeometry x="165" y="30" width="100" height="80" as="geometry" />
        </mxCell>
        <mxCell id="WIyWlLk6GJQsqaUBKTNV-7" value="Separar bobina para a data de montagem" style="rounded=1;whiteSpace=wrap;html=1;fontSize=12;glass=0;strokeWidth=1;shadow=0;" parent="Gi9BTqW4Cwu94ndGXkiz-2" vertex="1">
          <mxGeometry x="325" y="45" width="120" height="50" as="geometry" />
        </mxCell>
        <mxCell id="WIyWlLk6GJQsqaUBKTNV-5" value="Sim" style="edgeStyle=orthogonalEdgeStyle;rounded=0;html=1;jettySize=auto;orthogonalLoop=1;fontSize=11;endArrow=block;endFill=0;endSize=8;strokeWidth=1;shadow=0;labelBackgroundColor=none;" parent="Gi9BTqW4Cwu94ndGXkiz-2" source="WIyWlLk6GJQsqaUBKTNV-6" target="WIyWlLk6GJQsqaUBKTNV-7" edge="1">
          <mxGeometry y="10" relative="1" as="geometry">
            <mxPoint as="offset" />
          </mxGeometry>
        </mxCell>
        <mxCell id="Gi9BTqW4Cwu94ndGXkiz-5" value="Solicitação PEP para adequação da bobina" style="rounded=1;whiteSpace=wrap;html=1;fontSize=12;glass=0;strokeWidth=1;shadow=0;" vertex="1" parent="Gi9BTqW4Cwu94ndGXkiz-2">
          <mxGeometry x="155" y="150" width="120" height="50" as="geometry" />
        </mxCell>
        <mxCell id="WIyWlLk6GJQsqaUBKTNV-4" value="Não" style="rounded=0;html=1;jettySize=auto;orthogonalLoop=1;fontSize=11;endArrow=block;endFill=0;endSize=8;strokeWidth=1;shadow=0;labelBackgroundColor=none;edgeStyle=orthogonalEdgeStyle;entryX=0.5;entryY=0;entryDx=0;entryDy=0;" parent="Gi9BTqW4Cwu94ndGXkiz-2" source="WIyWlLk6GJQsqaUBKTNV-6" target="Gi9BTqW4Cwu94ndGXkiz-5" edge="1">
          <mxGeometry x="-0.5" y="20" relative="1" as="geometry">
            <mxPoint as="offset" />
          </mxGeometry>
        </mxCell>
        <mxCell id="Gi9BTqW4Cwu94ndGXkiz-3" value="ECMB" style="swimlane;startSize=20;horizontal=0;html=1;" vertex="1" parent="Gi9BTqW4Cwu94ndGXkiz-0">
          <mxGeometry x="20" y="380" width="740" height="150" as="geometry" />
        </mxCell>
        <mxCell id="Gi9BTqW4Cwu94ndGXkiz-10" value="" style="edgeStyle=orthogonalEdgeStyle;rounded=0;orthogonalLoop=1;jettySize=auto;html=1;" edge="1" parent="Gi9BTqW4Cwu94ndGXkiz-3" source="Gi9BTqW4Cwu94ndGXkiz-8" target="Gi9BTqW4Cwu94ndGXkiz-9">
          <mxGeometry relative="1" as="geometry" />
        </mxCell>
        <mxCell id="Gi9BTqW4Cwu94ndGXkiz-8" value="Elaborar a especificação técnica" style="rounded=1;whiteSpace=wrap;html=1;fontSize=12;glass=0;strokeWidth=1;shadow=0;" vertex="1" parent="Gi9BTqW4Cwu94ndGXkiz-3">
          <mxGeometry x="155" y="50" width="120" height="50" as="geometry" />
        </mxCell>
        <mxCell id="Gi9BTqW4Cwu94ndGXkiz-9" value="Abrir RC para execução do serviço" style="rounded=1;whiteSpace=wrap;html=1;fontSize=12;glass=0;strokeWidth=1;shadow=0;" vertex="1" parent="Gi9BTqW4Cwu94ndGXkiz-3">
          <mxGeometry x="325" y="50" width="120" height="50" as="geometry" />
        </mxCell>
        <mxCell id="Gi9BTqW4Cwu94ndGXkiz-11" value="JBJ / Carbogás" style="text;html=1;strokeColor=none;fillColor=none;align=center;verticalAlign=middle;whiteSpace=wrap;rounded=0;fontSize=10;" vertex="1" parent="Gi9BTqW4Cwu94ndGXkiz-3">
          <mxGeometry x="332.5" y="24" width="105" height="30" as="geometry" />
        </mxCell>
        <mxCell id="Gi9BTqW4Cwu94ndGXkiz-4" value="TERCEIRO" style="swimlane;startSize=20;horizontal=0;html=1;" vertex="1" parent="Gi9BTqW4Cwu94ndGXkiz-0">
          <mxGeometry x="20" y="530" width="740" height="150" as="geometry" />
        </mxCell>
        <mxCell id="Gi9BTqW4Cwu94ndGXkiz-12" value="Execução do serviço" style="rounded=1;whiteSpace=wrap;html=1;fontSize=12;glass=0;strokeWidth=1;shadow=0;" vertex="1" parent="Gi9BTqW4Cwu94ndGXkiz-4">
          <mxGeometry x="325" y="50" width="120" height="50" as="geometry" />
        </mxCell>
        <mxCell id="WIyWlLk6GJQsqaUBKTNV-2" value="" style="rounded=0;html=1;jettySize=auto;orthogonalLoop=1;fontSize=11;endArrow=block;endFill=0;endSize=8;strokeWidth=1;shadow=0;labelBackgroundColor=none;edgeStyle=orthogonalEdgeStyle;" parent="Gi9BTqW4Cwu94ndGXkiz-0" source="WIyWlLk6GJQsqaUBKTNV-3" target="WIyWlLk6GJQsqaUBKTNV-6" edge="1">
          <mxGeometry relative="1" as="geometry" />
        </mxCell>
        <mxCell id="Gi9BTqW4Cwu94ndGXkiz-7" value="" style="edgeStyle=orthogonalEdgeStyle;rounded=0;orthogonalLoop=1;jettySize=auto;html=1;entryX=0.5;entryY=0;entryDx=0;entryDy=0;" edge="1" parent="Gi9BTqW4Cwu94ndGXkiz-0" source="Gi9BTqW4Cwu94ndGXkiz-5" target="Gi9BTqW4Cwu94ndGXkiz-8">
          <mxGeometry relative="1" as="geometry">
            <mxPoint x="235" y="400" as="targetPoint" />
          </mxGeometry>
        </mxCell>
        <mxCell id="Gi9BTqW4Cwu94ndGXkiz-13" value="" style="edgeStyle=orthogonalEdgeStyle;rounded=0;orthogonalLoop=1;jettySize=auto;html=1;" edge="1" parent="Gi9BTqW4Cwu94ndGXkiz-0" source="Gi9BTqW4Cwu94ndGXkiz-9" target="Gi9BTqW4Cwu94ndGXkiz-12">
          <mxGeometry relative="1" as="geometry" />
        </mxCell>
        <mxCell id="Gi9BTqW4Cwu94ndGXkiz-15" style="edgeStyle=orthogonalEdgeStyle;rounded=0;orthogonalLoop=1;jettySize=auto;html=1;entryX=0.5;entryY=1;entryDx=0;entryDy=0;" edge="1" parent="Gi9BTqW4Cwu94ndGXkiz-0" source="WIyWlLk6GJQsqaUBKTNV-7" target="Gi9BTqW4Cwu94ndGXkiz-14">
          <mxGeometry relative="1" as="geometry" />
        </mxCell>
        <mxCell id="Gi9BTqW4Cwu94ndGXkiz-16" style="edgeStyle=orthogonalEdgeStyle;rounded=0;orthogonalLoop=1;jettySize=auto;html=1;entryX=0.5;entryY=1;entryDx=0;entryDy=0;" edge="1" parent="Gi9BTqW4Cwu94ndGXkiz-0" source="Gi9BTqW4Cwu94ndGXkiz-12" target="Gi9BTqW4Cwu94ndGXkiz-14">
          <mxGeometry relative="1" as="geometry" />
        </mxCell>
      </root>
    </mxGraphModel>
  </diagram>
</mxfile>
